{
  "header": {
    "PPQ": 480,
    "bpm": 90.00009000009,
    "timeSignature": [4, 4],
    "name": "Classical.mid"
  },
  "tempo": [
    {
      "absoluteTime": 0,
      "seconds": 0,
      "bpm": 90.00009000009
    }
  ],
  "timeSignature": [
    {
      "absoluteTime": 0,
      "seconds": 0,
      "numerator": 4,
      "denominator": 2,
      "click": 24,
      "notesQ": 8
    }
  ],
  "startTime": 0,
  "duration": 26.666640000000044,
  "tracks": [
    {
      "startTime": 0,
      "duration": 0,
      "length": 0,
      "notes": [],
      "controlChanges": {},
      "id": 0,
      "name": "Classical.mid"
    },
    {
      "startTime": 0,
      "duration": 26.666640000000044,
      "length": 298,
      "notes": [
        {
          "name": "C4",
          "midi": 60,
          "time": 0,
          "velocity": 0.8346456692913385,
          "duration": 0.333333
        },
        {
          "name": "E5",
          "midi": 76,
          "time": 0,
          "velocity": 0.8346456692913385,
          "duration": 0.333333
        },
        {
          "name": "A2",
          "midi": 45,
          "time": 0,
          "velocity": 0.8346456692913385,
          "duration": 0.333333
        },
        {
          "name": "E4",
          "midi": 64,
          "time": 0.333333,
          "velocity": 0.8346456692913385,
          "duration": 0.666666
        },
        {
          "name": "A5",
          "midi": 81,
          "time": 0.333333,
          "velocity": 0.8346456692913385,
          "duration": 0.666666
        },
        {
          "name": "E2",
          "midi": 40,
          "time": 0.666666,
          "velocity": 0.8346456692913385,
          "duration": 0.333333
        },
        {
          "name": "E3",
          "midi": 52,
          "time": 0.666666,
          "velocity": 0.8346456692913385,
          "duration": 0.333333
        },
        {
          "name": "A3",
          "midi": 57,
          "time": 0.999999,
          "velocity": 0.8346456692913385,
          "duration": 0.6666660000000001
        },
        {
          "name": "A2",
          "midi": 45,
          "time": 0.999999,
          "velocity": 0.8346456692913385,
          "duration": 0.333333
        },
        {
          "name": "C4",
          "midi": 60,
          "time": 1.333332,
          "velocity": 0.8346456692913385,
          "duration": 0.3333330000000001
        },
        {
          "name": "E5",
          "midi": 76,
          "time": 1.333332,
          "velocity": 0.8346456692913385,
          "duration": 0.3333330000000001
        },
        {
          "name": "D4",
          "midi": 62,
          "time": 1.666665,
          "velocity": 0.8346456692913385,
          "duration": 0.6666660000000002
        },
        {
          "name": "F5",
          "midi": 77,
          "time": 1.666665,
          "velocity": 0.8346456692913385,
          "duration": 0.6666660000000002
        },
        {
          "name": "A2",
          "midi": 45,
          "time": 1.9999980000000002,
          "velocity": 0.8346456692913385,
          "duration": 0.3333330000000001
        },
        {
          "name": "A3",
          "midi": 57,
          "time": 2.3333310000000003,
          "velocity": 0.8346456692913385,
          "duration": 0.6666660000000002
        },
        {
          "name": "B3",
          "midi": 59,
          "time": 2.6666640000000004,
          "velocity": 0.8346456692913385,
          "duration": 0.3333330000000001
        },
        {
          "name": "D5",
          "midi": 74,
          "time": 2.6666640000000004,
          "velocity": 0.8346456692913385,
          "duration": 0.3333330000000001
        },
        {
          "name": "C4",
          "midi": 60,
          "time": 2.9999970000000005,
          "velocity": 0.8346456692913385,
          "duration": 0.16666649999999983
        },
        {
          "name": "E5",
          "midi": 76,
          "time": 2.9999970000000005,
          "velocity": 0.8346456692913385,
          "duration": 0.16666649999999983
        },
        {
          "name": "B3",
          "midi": 59,
          "time": 3.1666635000000003,
          "velocity": 0.8346456692913385,
          "duration": 0.16666649999999983
        },
        {
          "name": "D5",
          "midi": 74,
          "time": 3.1666635000000003,
          "velocity": 0.8346456692913385,
          "duration": 0.16666649999999983
        },
        {
          "name": "A2",
          "midi": 45,
          "time": 3.33333,
          "velocity": 0.8346456692913385,
          "duration": 0.33333299999999966
        },
        {
          "name": "A3",
          "midi": 57,
          "time": 3.33333,
          "velocity": 0.8346456692913385,
          "duration": 0.16666649999999983
        },
        {
          "name": "C5",
          "midi": 72,
          "time": 3.33333,
          "velocity": 0.8346456692913385,
          "duration": 0.16666649999999983
        },
        {
          "name": "C4",
          "midi": 60,
          "time": 3.4999965,
          "velocity": 0.8346456692913385,
          "duration": 0.16666649999999983
        },
        {
          "name": "E5",
          "midi": 76,
          "time": 3.4999965,
          "velocity": 0.8346456692913385,
          "duration": 0.16666649999999983
        },
        {
          "name": "E3",
          "midi": 52,
          "time": 3.666663,
          "velocity": 0.8346456692913385,
          "duration": 0.33333299999999966
        },
        {
          "name": "B3",
          "midi": 59,
          "time": 3.666663,
          "velocity": 0.8346456692913385,
          "duration": 0.16666649999999983
        },
        {
          "name": "D5",
          "midi": 74,
          "time": 3.666663,
          "velocity": 0.8346456692913385,
          "duration": 0.16666649999999983
        },
        {
          "name": "A3",
          "midi": 57,
          "time": 3.8333294999999996,
          "velocity": 0.8346456692913385,
          "duration": 0.16666649999999983
        },
        {
          "name": "C5",
          "midi": 72,
          "time": 3.8333294999999996,
          "velocity": 0.8346456692913385,
          "duration": 0.16666649999999983
        },
        {
          "name": "E2",
          "midi": 40,
          "time": 3.9999959999999994,
          "velocity": 0.8346456692913385,
          "duration": 0.33333299999999966
        },
        {
          "name": "G#3",
          "midi": 56,
          "time": 3.9999959999999994,
          "velocity": 0.8346456692913385,
          "duration": 0.16666649999999983
        },
        {
          "name": "B4",
          "midi": 71,
          "time": 3.9999959999999994,
          "velocity": 0.8346456692913385,
          "duration": 0.16666649999999983
        },
        {
          "name": "B3",
          "midi": 59,
          "time": 4.166662499999999,
          "velocity": 0.8346456692913385,
          "duration": 0.16666649999999983
        },
        {
          "name": "D5",
          "midi": 74,
          "time": 4.166662499999999,
          "velocity": 0.8346456692913385,
          "duration": 0.16666649999999983
        },
        {
          "name": "A2",
          "midi": 45,
          "time": 4.333328999999999,
          "velocity": 0.8346456692913385,
          "duration": 0.33333299999999966
        },
        {
          "name": "A3",
          "midi": 57,
          "time": 4.333328999999999,
          "velocity": 0.8346456692913385,
          "duration": 0.33333299999999966
        },
        {
          "name": "C5",
          "midi": 72,
          "time": 4.333328999999999,
          "velocity": 0.8346456692913385,
          "duration": 0.33333299999999966
        },
        {
          "name": "A3",
          "midi": 57,
          "time": 4.666661999999999,
          "velocity": 0.8346456692913385,
          "duration": 0.16666649999999983
        },
        {
          "name": "E3",
          "midi": 52,
          "time": 4.666661999999999,
          "velocity": 0.8346456692913385,
          "duration": 0.33333299999999966
        },
        {
          "name": "A4",
          "midi": 69,
          "time": 4.666661999999999,
          "velocity": 0.8346456692913385,
          "duration": 0.33333299999999966
        },
        {
          "name": "B3",
          "midi": 59,
          "time": 4.833328499999999,
          "velocity": 0.8346456692913385,
          "duration": 0.16666649999999983
        },
        {
          "name": "B3",
          "midi": 59,
          "time": 4.999994999999998,
          "velocity": 0.8346456692913385,
          "duration": 0.16666649999999983
        },
        {
          "name": "B5",
          "midi": 83,
          "time": 4.999994999999998,
          "velocity": 0.8346456692913385,
          "duration": 0.999998999999999
        },
        {
          "name": "A3",
          "midi": 57,
          "time": 5.166661499999998,
          "velocity": 0.8346456692913385,
          "duration": 0.16666649999999983
        },
        {
          "name": "E4",
          "midi": 64,
          "time": 5.333327999999998,
          "velocity": 0.8346456692913385,
          "duration": 0.16666649999999983
        },
        {
          "name": "G#3",
          "midi": 56,
          "time": 5.333327999999998,
          "velocity": 0.8346456692913385,
          "duration": 0.16666649999999983
        },
        {
          "name": "D4",
          "midi": 62,
          "time": 5.499994499999998,
          "velocity": 0.8346456692913385,
          "duration": 0.16666649999999983
        },
        {
          "name": "F#3",
          "midi": 54,
          "time": 5.499994499999998,
          "velocity": 0.8346456692913385,
          "duration": 0.16666649999999983
        },
        {
          "name": "C4",
          "midi": 60,
          "time": 5.666660999999998,
          "velocity": 0.8346456692913385,
          "duration": 0.33333299999999966
        },
        {
          "name": "E3",
          "midi": 52,
          "time": 5.666660999999998,
          "velocity": 0.8346456692913385,
          "duration": 0.16666649999999983
        },
        {
          "name": "D4",
          "midi": 62,
          "time": 5.833327499999998,
          "velocity": 0.8346456692913385,
          "duration": 0.16666649999999983
        },
        {
          "name": "A5",
          "midi": 81,
          "time": 5.999993999999997,
          "velocity": 0.8346456692913385,
          "duration": 0.16666649999999983
        },
        {
          "name": "E4",
          "midi": 64,
          "time": 5.999993999999997,
          "velocity": 0.8346456692913385,
          "duration": 0.33333299999999966
        },
        {
          "name": "C4",
          "midi": 60,
          "time": 5.999993999999997,
          "velocity": 0.8346456692913385,
          "duration": 0.16666649999999983
        },
        {
          "name": "G#5",
          "midi": 80,
          "time": 6.166660499999997,
          "velocity": 0.8346456692913385,
          "duration": 0.16666649999999983
        },
        {
          "name": "B3",
          "midi": 59,
          "time": 6.166660499999997,
          "velocity": 0.8346456692913385,
          "duration": 0.16666649999999983
        },
        {
          "name": "C4",
          "midi": 60,
          "time": 6.333326999999997,
          "velocity": 0.8346456692913385,
          "duration": 0.33333299999999966
        },
        {
          "name": "A5",
          "midi": 81,
          "time": 6.333326999999997,
          "velocity": 0.8346456692913385,
          "duration": 0.33333299999999966
        },
        {
          "name": "A3",
          "midi": 57,
          "time": 6.333326999999997,
          "velocity": 0.8346456692913385,
          "duration": 0.16666649999999983
        },
        {
          "name": "G3",
          "midi": 55,
          "time": 6.499993499999997,
          "velocity": 0.8346456692913385,
          "duration": 0.16666649999999983
        },
        {
          "name": "A3",
          "midi": 57,
          "time": 6.666659999999997,
          "velocity": 0.8346456692913385,
          "duration": 0.33333299999999966
        },
        {
          "name": "C6",
          "midi": 84,
          "time": 6.666659999999997,
          "velocity": 0.8346456692913385,
          "duration": 0.6666659999999993
        },
        {
          "name": "F#3",
          "midi": 54,
          "time": 6.666659999999997,
          "velocity": 0.8346456692913385,
          "duration": 0.16666649999999983
        },
        {
          "name": "E3",
          "midi": 52,
          "time": 6.8333264999999965,
          "velocity": 0.8346456692913385,
          "duration": 0.16666649999999983
        },
        {
          "name": "D4",
          "midi": 62,
          "time": 6.999992999999996,
          "velocity": 0.8346456692913385,
          "duration": 0.33333299999999966
        },
        {
          "name": "F#3",
          "midi": 54,
          "time": 6.999992999999996,
          "velocity": 0.8346456692913385,
          "duration": 0.16666649999999983
        },
        {
          "name": "D4",
          "midi": 62,
          "time": 7.166659499999996,
          "velocity": 0.8346456692913385,
          "duration": 0.16666649999999983
        },
        {
          "name": "F#5",
          "midi": 78,
          "time": 7.333325999999996,
          "velocity": 0.8346456692913385,
          "duration": 0.33333299999999966
        },
        {
          "name": "D3",
          "midi": 50,
          "time": 7.333325999999996,
          "velocity": 0.8346456692913385,
          "duration": 0.33333299999999966
        },
        {
          "name": "C4",
          "midi": 60,
          "time": 7.333325999999996,
          "velocity": 0.8346456692913385,
          "duration": 0.16666649999999983
        },
        {
          "name": "B3",
          "midi": 59,
          "time": 7.499992499999996,
          "velocity": 0.8346456692913385,
          "duration": 0.16666649999999983
        },
        {
          "name": "A5",
          "midi": 81,
          "time": 7.666658999999996,
          "velocity": 0.8346456692913385,
          "duration": 0.999998999999999
        },
        {
          "name": "A3",
          "midi": 57,
          "time": 7.666658999999996,
          "velocity": 0.8346456692913385,
          "duration": 0.16666649999999983
        },
        {
          "name": "G3",
          "midi": 55,
          "time": 7.8333254999999955,
          "velocity": 0.8346456692913385,
          "duration": 0.16666649999999983
        },
        {
          "name": "D4",
          "midi": 62,
          "time": 7.999991999999995,
          "velocity": 0.8346456692913385,
          "duration": 0.16666649999999983
        },
        {
          "name": "F#3",
          "midi": 54,
          "time": 7.999991999999995,
          "velocity": 0.8346456692913385,
          "duration": 0.16666649999999983
        },
        {
          "name": "C4",
          "midi": 60,
          "time": 8.166658499999995,
          "velocity": 0.8346456692913385,
          "duration": 0.16666649999999983
        },
        {
          "name": "E3",
          "midi": 52,
          "time": 8.166658499999995,
          "velocity": 0.8346456692913385,
          "duration": 0.16666649999999983
        },
        {
          "name": "B3",
          "midi": 59,
          "time": 8.333324999999995,
          "velocity": 0.8346456692913385,
          "duration": 0.33333299999999966
        },
        {
          "name": "D3",
          "midi": 50,
          "time": 8.333324999999995,
          "velocity": 0.8346456692913385,
          "duration": 0.16666649999999983
        },
        {
          "name": "C4",
          "midi": 60,
          "time": 8.499991499999995,
          "velocity": 0.8346456692913385,
          "duration": 0.16666649999999983
        },
        {
          "name": "G5",
          "midi": 79,
          "time": 8.666657999999995,
          "velocity": 0.8346456692913385,
          "duration": 0.16666649999999983
        },
        {
          "name": "D4",
          "midi": 62,
          "time": 8.666657999999995,
          "velocity": 0.8346456692913385,
          "duration": 0.33333299999999966
        },
        {
          "name": "B3",
          "midi": 59,
          "time": 8.666657999999995,
          "velocity": 0.8346456692913385,
          "duration": 0.16666649999999983
        },
        {
          "name": "F#5",
          "midi": 78,
          "time": 8.833324499999994,
          "velocity": 0.8346456692913385,
          "duration": 0.16666649999999983
        },
        {
          "name": "A3",
          "midi": 57,
          "time": 8.833324499999994,
          "velocity": 0.8346456692913385,
          "duration": 0.16666649999999983
        },
        {
          "name": "B3",
          "midi": 59,
          "time": 8.999990999999994,
          "velocity": 0.8346456692913385,
          "duration": 0.33333299999999966
        },
        {
          "name": "G5",
          "midi": 79,
          "time": 8.999990999999994,
          "velocity": 0.8346456692913385,
          "duration": 0.33333299999999966
        },
        {
          "name": "G3",
          "midi": 55,
          "time": 8.999990999999994,
          "velocity": 0.8346456692913385,
          "duration": 0.16666649999999983
        },
        {
          "name": "F#3",
          "midi": 54,
          "time": 9.166657499999994,
          "velocity": 0.8346456692913385,
          "duration": 0.16666649999999983
        },
        {
          "name": "G3",
          "midi": 55,
          "time": 9.333323999999994,
          "velocity": 0.8346456692913385,
          "duration": 0.33333299999999966
        },
        {
          "name": "B5",
          "midi": 83,
          "time": 9.333323999999994,
          "velocity": 0.8346456692913385,
          "duration": 0.4999994999999995
        },
        {
          "name": "E3",
          "midi": 52,
          "time": 9.333323999999994,
          "velocity": 0.8346456692913385,
          "duration": 0.16666649999999983
        },
        {
          "name": "D#3",
          "midi": 51,
          "time": 9.499990499999994,
          "velocity": 0.8346456692913385,
          "duration": 0.16666649999999983
        },
        {
          "name": "C4",
          "midi": 60,
          "time": 9.666656999999994,
          "velocity": 0.8346456692913385,
          "duration": 0.33333299999999966
        },
        {
          "name": "E3",
          "midi": 52,
          "time": 9.666656999999994,
          "velocity": 0.8346456692913385,
          "duration": 0.16666649999999983
        },
        {
          "name": "A5",
          "midi": 81,
          "time": 9.833323499999993,
          "velocity": 0.8346456692913385,
          "duration": 0.16666649999999983
        },
        {
          "name": "C4",
          "midi": 60,
          "time": 9.833323499999993,
          "velocity": 0.8346456692913385,
          "duration": 0.16666649999999983
        },
        {
          "name": "C3",
          "midi": 48,
          "time": 9.999989999999993,
          "velocity": 0.8346456692913385,
          "duration": 0.33333299999999966
        },
        {
          "name": "G5",
          "midi": 79,
          "time": 9.999989999999993,
          "velocity": 0.8346456692913385,
          "duration": 0.16666649999999983
        },
        {
          "name": "B3",
          "midi": 59,
          "time": 9.999989999999993,
          "velocity": 0.8346456692913385,
          "duration": 0.16666649999999983
        },
        {
          "name": "F#5",
          "midi": 78,
          "time": 10.166656499999993,
          "velocity": 0.8346456692913385,
          "duration": 0.16666649999999983
        },
        {
          "name": "A3",
          "midi": 57,
          "time": 10.166656499999993,
          "velocity": 0.8346456692913385,
          "duration": 0.16666649999999983
        },
        {
          "name": "E5",
          "midi": 76,
          "time": 10.333322999999993,
          "velocity": 0.8346456692913385,
          "duration": 0.999998999999999
        },
        {
          "name": "G3",
          "midi": 55,
          "time": 10.333322999999993,
          "velocity": 0.8346456692913385,
          "duration": 0.16666649999999983
        },
        {
          "name": "F#3",
          "midi": 54,
          "time": 10.499989499999993,
          "velocity": 0.8346456692913385,
          "duration": 0.16666649999999983
        },
        {
          "name": "C4",
          "midi": 60,
          "time": 10.666655999999993,
          "velocity": 0.8346456692913385,
          "duration": 0.16666649999999983
        },
        {
          "name": "E3",
          "midi": 52,
          "time": 10.666655999999993,
          "velocity": 0.8346456692913385,
          "duration": 0.16666649999999983
        },
        {
          "name": "B3",
          "midi": 59,
          "time": 10.833322499999992,
          "velocity": 0.8346456692913385,
          "duration": 0.16666649999999983
        },
        {
          "name": "D3",
          "midi": 50,
          "time": 10.833322499999992,
          "velocity": 0.8346456692913385,
          "duration": 0.16666649999999983
        },
        {
          "name": "A3",
          "midi": 57,
          "time": 10.999988999999992,
          "velocity": 0.8346456692913385,
          "duration": 0.16666649999999983
        },
        {
          "name": "C3",
          "midi": 48,
          "time": 10.999988999999992,
          "velocity": 0.8346456692913385,
          "duration": 0.33333299999999966
        },
        {
          "name": "B3",
          "midi": 59,
          "time": 11.166655499999992,
          "velocity": 0.8346456692913385,
          "duration": 0.16666649999999983
        },
        {
          "name": "F#5",
          "midi": 78,
          "time": 11.333321999999992,
          "velocity": 0.8346456692913385,
          "duration": 0.16666649999999983
        },
        {
          "name": "C4",
          "midi": 60,
          "time": 11.333321999999992,
          "velocity": 0.8346456692913385,
          "duration": 0.4999994999999995
        },
        {
          "name": "A3",
          "midi": 57,
          "time": 11.333321999999992,
          "velocity": 0.8346456692913385,
          "duration": 0.16666649999999983
        },
        {
          "name": "G5",
          "midi": 79,
          "time": 11.499988499999992,
          "velocity": 0.8346456692913385,
          "duration": 0.16666649999999983
        },
        {
          "name": "G3",
          "midi": 55,
          "time": 11.499988499999992,
          "velocity": 0.8346456692913385,
          "duration": 0.16666649999999983
        },
        {
          "name": "A5",
          "midi": 81,
          "time": 11.666654999999992,
          "velocity": 0.8346456692913385,
          "duration": 0.33333299999999966
        },
        {
          "name": "F#3",
          "midi": 54,
          "time": 11.666654999999992,
          "velocity": 0.8346456692913385,
          "duration": 0.16666649999999983
        },
        {
          "name": "B3",
          "midi": 59,
          "time": 11.833321499999991,
          "velocity": 0.8346456692913385,
          "duration": 0.16666649999999983
        },
        {
          "name": "G3",
          "midi": 55,
          "time": 11.833321499999991,
          "velocity": 0.8346456692913385,
          "duration": 0.16666649999999983
        },
        {
          "name": "C5",
          "midi": 72,
          "time": 11.999987999999991,
          "velocity": 0.8346456692913385,
          "duration": 0.33333299999999966
        },
        {
          "name": "A3",
          "midi": 57,
          "time": 11.999987999999991,
          "velocity": 0.8346456692913385,
          "duration": 0.16666649999999983
        },
        {
          "name": "F#3",
          "midi": 54,
          "time": 11.999987999999991,
          "velocity": 0.8346456692913385,
          "duration": 0.16666649999999983
        },
        {
          "name": "G3",
          "midi": 55,
          "time": 12.166654499999991,
          "velocity": 0.8346456692913385,
          "duration": 0.16666649999999983
        },
        {
          "name": "E3",
          "midi": 52,
          "time": 12.166654499999991,
          "velocity": 0.8346456692913385,
          "duration": 0.16666649999999983
        },
        {
          "name": "B4",
          "midi": 71,
          "time": 12.33332099999999,
          "velocity": 0.8346456692913385,
          "duration": 0.33333299999999966
        },
        {
          "name": "F#3",
          "midi": 54,
          "time": 12.33332099999999,
          "velocity": 0.8346456692913385,
          "duration": 0.33333299999999966
        },
        {
          "name": "D#3",
          "midi": 51,
          "time": 12.33332099999999,
          "velocity": 0.8346456692913385,
          "duration": 0.16666649999999983
        },
        {
          "name": "B2",
          "midi": 47,
          "time": 12.49998749999999,
          "velocity": 0.8346456692913385,
          "duration": 0.16666649999999983
        },
        {
          "name": "A5",
          "midi": 81,
          "time": 12.66665399999999,
          "velocity": 0.8346456692913385,
          "duration": 0.33333299999999966
        },
        {
          "name": "F#4",
          "midi": 66,
          "time": 12.66665399999999,
          "velocity": 0.8346456692913385,
          "duration": 0.33333299999999966
        },
        {
          "name": "C#3",
          "midi": 49,
          "time": 12.66665399999999,
          "velocity": 0.8346456692913385,
          "duration": 0.16666649999999983
        },
        {
          "name": "D#3",
          "midi": 51,
          "time": 12.83332049999999,
          "velocity": 0.8346456692913385,
          "duration": 0.16666649999999983
        },
        {
          "name": "G5",
          "midi": 79,
          "time": 12.99998699999999,
          "velocity": 0.8346456692913385,
          "duration": 0.33333299999999966
        },
        {
          "name": "E4",
          "midi": 64,
          "time": 12.99998699999999,
          "velocity": 0.8346456692913385,
          "duration": 0.33333299999999966
        },
        {
          "name": "E3",
          "midi": 52,
          "time": 12.99998699999999,
          "velocity": 0.8346456692913385,
          "duration": 0.16666649999999983
        },
        {
          "name": "F#3",
          "midi": 54,
          "time": 13.16665349999999,
          "velocity": 0.8346456692913385,
          "duration": 0.16666649999999983
        },
        {
          "name": "B4",
          "midi": 71,
          "time": 13.33331999999999,
          "velocity": 0.8346456692913385,
          "duration": 0.33333299999999966
        },
        {
          "name": "E3",
          "midi": 52,
          "time": 13.33331999999999,
          "velocity": 0.8346456692913385,
          "duration": 0.33333299999999966
        },
        {
          "name": "G3",
          "midi": 55,
          "time": 13.33331999999999,
          "velocity": 0.8346456692913385,
          "duration": 0.16666649999999983
        },
        {
          "name": "E3",
          "midi": 52,
          "time": 13.49998649999999,
          "velocity": 0.8346456692913385,
          "duration": 0.4999994999999995
        },
        {
          "name": "A4",
          "midi": 69,
          "time": 13.66665299999999,
          "velocity": 0.8346456692913385,
          "duration": 0.16666649999999983
        },
        {
          "name": "C3",
          "midi": 48,
          "time": 13.66665299999999,
          "velocity": 0.8346456692913385,
          "duration": 0.33333299999999966
        },
        {
          "name": "B4",
          "midi": 71,
          "time": 13.83331949999999,
          "velocity": 0.8346456692913385,
          "duration": 0.16666649999999983
        },
        {
          "name": "D#3",
          "midi": 51,
          "time": 13.99998599999999,
          "velocity": 0.8346456692913385,
          "duration": 0.33333299999999966
        },
        {
          "name": "B2",
          "midi": 47,
          "time": 13.99998599999999,
          "velocity": 0.8346456692913385,
          "duration": 0.33333299999999966
        },
        {
          "name": "C5",
          "midi": 72,
          "time": 13.99998599999999,
          "velocity": 0.8346456692913385,
          "duration": 0.16666649999999983
        },
        {
          "name": "B4",
          "midi": 71,
          "time": 14.166652499999989,
          "velocity": 0.8346456692913385,
          "duration": 0.16666649999999983
        },
        {
          "name": "E3",
          "midi": 52,
          "time": 14.333318999999989,
          "velocity": 0.8346456692913385,
          "duration": 0.33333299999999966
        },
        {
          "name": "C3",
          "midi": 48,
          "time": 14.333318999999989,
          "velocity": 0.8346456692913385,
          "duration": 0.33333299999999966
        },
        {
          "name": "A4",
          "midi": 69,
          "time": 14.333318999999989,
          "velocity": 0.8346456692913385,
          "duration": 0.16666649999999983
        },
        {
          "name": "G4",
          "midi": 67,
          "time": 14.499985499999989,
          "velocity": 0.8346456692913385,
          "duration": 0.16666649999999983
        },
        {
          "name": "C4",
          "midi": 60,
          "time": 14.666651999999988,
          "velocity": 0.8346456692913385,
          "duration": 0.6666659999999993
        },
        {
          "name": "A2",
          "midi": 45,
          "time": 14.666651999999988,
          "velocity": 0.8346456692913385,
          "duration": 0.33333299999999966
        },
        {
          "name": "F#4",
          "midi": 66,
          "time": 14.666651999999988,
          "velocity": 0.8346456692913385,
          "duration": 0.16666649999999983
        },
        {
          "name": "E4",
          "midi": 64,
          "time": 14.833318499999988,
          "velocity": 0.8346456692913385,
          "duration": 0.16666649999999983
        },
        {
          "name": "B2",
          "midi": 47,
          "time": 14.999984999999988,
          "velocity": 0.8346456692913385,
          "duration": 0.4999994999999995
        },
        {
          "name": "D#4",
          "midi": 63,
          "time": 14.999984999999988,
          "velocity": 0.8346456692913385,
          "duration": 0.33333299999999966
        },
        {
          "name": "F#3",
          "midi": 54,
          "time": 15.333317999999988,
          "velocity": 0.8346456692913385,
          "duration": 0.33333300000000143
        },
        {
          "name": "C5",
          "midi": 72,
          "time": 15.333317999999988,
          "velocity": 0.8346456692913385,
          "duration": 0.33333300000000143
        },
        {
          "name": "C#3",
          "midi": 49,
          "time": 15.499984499999988,
          "velocity": 0.8346456692913385,
          "duration": 0.0833332500000008
        },
        {
          "name": "D#3",
          "midi": 51,
          "time": 15.583317749999988,
          "velocity": 0.8346456692913385,
          "duration": 0.0833332500000008
        },
        {
          "name": "G3",
          "midi": 55,
          "time": 15.66665099999999,
          "velocity": 0.8346456692913385,
          "duration": 0.33333299999999966
        },
        {
          "name": "B4",
          "midi": 71,
          "time": 15.66665099999999,
          "velocity": 0.8346456692913385,
          "duration": 0.33333299999999966
        },
        {
          "name": "E3",
          "midi": 52,
          "time": 15.66665099999999,
          "velocity": 0.8346456692913385,
          "duration": 0.16666649999999983
        },
        {
          "name": "F#3",
          "midi": 54,
          "time": 15.833317499999989,
          "velocity": 0.8346456692913385,
          "duration": 0.16666649999999983
        },
        {
          "name": "E4",
          "midi": 64,
          "time": 15.999983999999989,
          "velocity": 0.8346456692913385,
          "duration": 0.33333300000000143
        },
        {
          "name": "E5",
          "midi": 76,
          "time": 15.999983999999989,
          "velocity": 0.8346456692913385,
          "duration": 0.33333300000000143
        },
        {
          "name": "G3",
          "midi": 55,
          "time": 15.999983999999989,
          "velocity": 0.8346456692913385,
          "duration": 0.16666649999999983
        },
        {
          "name": "A3",
          "midi": 57,
          "time": 16.16665049999999,
          "velocity": 0.8346456692913385,
          "duration": 0.1666665000000016
        },
        {
          "name": "E4",
          "midi": 64,
          "time": 16.33331699999999,
          "velocity": 0.8346456692913385,
          "duration": 0.6666659999999993
        },
        {
          "name": "G5",
          "midi": 79,
          "time": 16.33331699999999,
          "velocity": 0.8346456692913385,
          "duration": 0.6666659999999993
        },
        {
          "name": "B3",
          "midi": 59,
          "time": 16.33331699999999,
          "velocity": 0.8346456692913385,
          "duration": 0.33333299999999966
        },
        {
          "name": "A3",
          "midi": 57,
          "time": 16.66664999999999,
          "velocity": 0.8346456692913385,
          "duration": 0.33333299999999966
        },
        {
          "name": "D#4",
          "midi": 63,
          "time": 16.99998299999999,
          "velocity": 0.8346456692913385,
          "duration": 0.08333324999999903
        },
        {
          "name": "F#5",
          "midi": 78,
          "time": 16.99998299999999,
          "velocity": 0.8346456692913385,
          "duration": 0.08333324999999903
        },
        {
          "name": "B3",
          "midi": 59,
          "time": 16.99998299999999,
          "velocity": 0.8346456692913385,
          "duration": 0.3333329999999961
        },
        {
          "name": "E4",
          "midi": 64,
          "time": 17.08331624999999,
          "velocity": 0.8346456692913385,
          "duration": 0.08333324999999903
        },
        {
          "name": "G5",
          "midi": 79,
          "time": 17.08331624999999,
          "velocity": 0.8346456692913385,
          "duration": 0.08333324999999903
        },
        {
          "name": "D#4",
          "midi": 63,
          "time": 17.166649499999988,
          "velocity": 0.8346456692913385,
          "duration": 0.08333324999999903
        },
        {
          "name": "F#5",
          "midi": 78,
          "time": 17.166649499999988,
          "velocity": 0.8346456692913385,
          "duration": 0.08333324999999903
        },
        {
          "name": "E4",
          "midi": 64,
          "time": 17.249982749999987,
          "velocity": 0.8346456692913385,
          "duration": 0.08333324999999903
        },
        {
          "name": "G5",
          "midi": 79,
          "time": 17.249982749999987,
          "velocity": 0.8346456692913385,
          "duration": 0.08333324999999903
        },
        {
          "name": "B2",
          "midi": 47,
          "time": 17.333315999999986,
          "velocity": 0.8346456692913385,
          "duration": 0.3333329999999961
        },
        {
          "name": "D#4",
          "midi": 63,
          "time": 17.333315999999986,
          "velocity": 0.8346456692913385,
          "duration": 0.08333324999999903
        },
        {
          "name": "F#5",
          "midi": 78,
          "time": 17.333315999999986,
          "velocity": 0.8346456692913385,
          "duration": 0.08333324999999903
        },
        {
          "name": "E4",
          "midi": 64,
          "time": 17.416649249999985,
          "velocity": 0.8346456692913385,
          "duration": 0.08333324999999903
        },
        {
          "name": "G5",
          "midi": 79,
          "time": 17.416649249999985,
          "velocity": 0.8346456692913385,
          "duration": 0.08333324999999903
        },
        {
          "name": "D#4",
          "midi": 63,
          "time": 17.499982499999984,
          "velocity": 0.8346456692913385,
          "duration": 0.08333324999999903
        },
        {
          "name": "F#5",
          "midi": 78,
          "time": 17.499982499999984,
          "velocity": 0.8346456692913385,
          "duration": 0.08333324999999903
        },
        {
          "name": "E4",
          "midi": 64,
          "time": 17.583315749999983,
          "velocity": 0.8346456692913385,
          "duration": 0.08333324999999903
        },
        {
          "name": "G5",
          "midi": 79,
          "time": 17.583315749999983,
          "velocity": 0.8346456692913385,
          "duration": 0.08333324999999903
        },
        {
          "name": "A3",
          "midi": 57,
          "time": 17.666648999999982,
          "velocity": 0.8346456692913385,
          "duration": 0.3333330000000032
        },
        {
          "name": "D#4",
          "midi": 63,
          "time": 17.666648999999982,
          "velocity": 0.8346456692913385,
          "duration": 0.6666660000000064
        },
        {
          "name": "F#5",
          "midi": 78,
          "time": 17.666648999999982,
          "velocity": 0.8346456692913385,
          "duration": 0.1666665000000016
        },
        {
          "name": "G5",
          "midi": 79,
          "time": 17.833315499999983,
          "velocity": 0.8346456692913385,
          "duration": 0.1666665000000016
        },
        {
          "name": "G3",
          "midi": 55,
          "time": 17.999981999999985,
          "velocity": 0.8346456692913385,
          "duration": 0.3333330000000032
        },
        {
          "name": "A5",
          "midi": 81,
          "time": 17.999981999999985,
          "velocity": 0.8346456692913385,
          "duration": 0.1666665000000016
        },
        {
          "name": "F#5",
          "midi": 78,
          "time": 18.166648499999987,
          "velocity": 0.8346456692913385,
          "duration": 0.1666665000000016
        },
        {
          "name": "A3",
          "midi": 57,
          "time": 18.33331499999999,
          "velocity": 0.8346456692913385,
          "duration": 0.3333330000000032
        },
        {
          "name": "D#5",
          "midi": 75,
          "time": 18.33331499999999,
          "velocity": 0.8346456692913385,
          "duration": 0.1666665000000016
        },
        {
          "name": "E5",
          "midi": 76,
          "time": 18.49998149999999,
          "velocity": 0.8346456692913385,
          "duration": 0.1666665000000016
        },
        {
          "name": "D#4",
          "midi": 63,
          "time": 18.66664799999999,
          "velocity": 0.8346456692913385,
          "duration": 0.3333330000000032
        },
        {
          "name": "A2",
          "midi": 45,
          "time": 18.66664799999999,
          "velocity": 0.8346456692913385,
          "duration": 0.3333330000000032
        },
        {
          "name": "F#5",
          "midi": 78,
          "time": 18.66664799999999,
          "velocity": 0.8346456692913385,
          "duration": 0.1666665000000016
        },
        {
          "name": "D#5",
          "midi": 75,
          "time": 18.833314499999993,
          "velocity": 0.8346456692913385,
          "duration": 0.1666665000000016
        },
        {
          "name": "E4",
          "midi": 64,
          "time": 18.999980999999995,
          "velocity": 0.8346456692913385,
          "duration": 0.33333299999999966
        },
        {
          "name": "G2",
          "midi": 43,
          "time": 18.999980999999995,
          "velocity": 0.8346456692913385,
          "duration": 0.33333299999999966
        },
        {
          "name": "B5",
          "midi": 83,
          "time": 18.999980999999995,
          "velocity": 0.8346456692913385,
          "duration": 0.33333299999999966
        },
        {
          "name": "G3",
          "midi": 55,
          "time": 19.333313999999994,
          "velocity": 0.8346456692913385,
          "duration": 0.33333299999999966
        },
        {
          "name": "C3",
          "midi": 48,
          "time": 19.333313999999994,
          "velocity": 0.8346456692913385,
          "duration": 0.33333299999999966
        },
        {
          "name": "E5",
          "midi": 76,
          "time": 19.333313999999994,
          "velocity": 0.8346456692913385,
          "duration": 0.33333299999999966
        },
        {
          "name": "A3",
          "midi": 57,
          "time": 19.666646999999994,
          "velocity": 0.8346456692913385,
          "duration": 0.33333299999999966
        },
        {
          "name": "A2",
          "midi": 45,
          "time": 19.666646999999994,
          "velocity": 0.8346456692913385,
          "duration": 0.33333299999999966
        },
        {
          "name": "F#5",
          "midi": 78,
          "time": 19.666646999999994,
          "velocity": 0.8346456692913385,
          "duration": 0.33333299999999966
        },
        {
          "name": "F#3",
          "midi": 54,
          "time": 19.999979999999994,
          "velocity": 0.8346456692913385,
          "duration": 0.33333299999999966
        },
        {
          "name": "B2",
          "midi": 47,
          "time": 19.999979999999994,
          "velocity": 0.8346456692913385,
          "duration": 0.33333299999999966
        },
        {
          "name": "D#5",
          "midi": 75,
          "time": 19.999979999999994,
          "velocity": 0.8346456692913385,
          "duration": 0.33333299999999966
        },
        {
          "name": "E3",
          "midi": 52,
          "time": 20.333312999999993,
          "velocity": 0.8346456692913385,
          "duration": 0.3333330000000032
        },
        {
          "name": "E2",
          "midi": 40,
          "time": 20.333312999999993,
          "velocity": 0.8346456692913385,
          "duration": 0.6666660000000064
        },
        {
          "name": "E5",
          "midi": 76,
          "time": 20.333312999999993,
          "velocity": 0.8346456692913385,
          "duration": 0.1666665000000016
        },
        {
          "name": "D5",
          "midi": 74,
          "time": 20.499979499999995,
          "velocity": 0.8346456692913385,
          "duration": 0.1666665000000016
        },
        {
          "name": "E4",
          "midi": 64,
          "time": 20.666645999999997,
          "velocity": 0.8346456692913385,
          "duration": 0.1666665000000016
        },
        {
          "name": "C5",
          "midi": 72,
          "time": 20.666645999999997,
          "velocity": 0.8346456692913385,
          "duration": 0.1666665000000016
        },
        {
          "name": "D4",
          "midi": 62,
          "time": 20.833312499999998,
          "velocity": 0.8346456692913385,
          "duration": 0.1666665000000016
        },
        {
          "name": "B4",
          "midi": 71,
          "time": 20.833312499999998,
          "velocity": 0.8346456692913385,
          "duration": 0.1666665000000016
        },
        {
          "name": "C4",
          "midi": 60,
          "time": 20.999979,
          "velocity": 0.8346456692913385,
          "duration": 0.1666665000000016
        },
        {
          "name": "A4",
          "midi": 69,
          "time": 20.999979,
          "velocity": 0.8346456692913385,
          "duration": 0.3333330000000032
        },
        {
          "name": "B3",
          "midi": 59,
          "time": 21.1666455,
          "velocity": 0.8346456692913385,
          "duration": 0.1666665000000016
        },
        {
          "name": "C4",
          "midi": 60,
          "time": 21.333312000000003,
          "velocity": 0.8346456692913385,
          "duration": 0.3333330000000032
        },
        {
          "name": "A4",
          "midi": 69,
          "time": 21.333312000000003,
          "velocity": 0.8346456692913385,
          "duration": 0.3333330000000032
        },
        {
          "name": "A3",
          "midi": 57,
          "time": 21.333312000000003,
          "velocity": 0.8346456692913385,
          "duration": 0.1666665000000016
        },
        {
          "name": "G3",
          "midi": 55,
          "time": 21.499978500000005,
          "velocity": 0.8346456692913385,
          "duration": 0.1666665000000016
        },
        {
          "name": "D#3",
          "midi": 51,
          "time": 21.666645000000006,
          "velocity": 0.8346456692913385,
          "duration": 0.3333330000000032
        },
        {
          "name": "A4",
          "midi": 69,
          "time": 21.666645000000006,
          "velocity": 0.8346456692913385,
          "duration": 0.1666665000000016
        },
        {
          "name": "F#3",
          "midi": 54,
          "time": 21.666645000000006,
          "velocity": 0.8346456692913385,
          "duration": 0.1666665000000016
        },
        {
          "name": "B4",
          "midi": 71,
          "time": 21.833311500000008,
          "velocity": 0.8346456692913385,
          "duration": 0.1666665000000016
        },
        {
          "name": "E3",
          "midi": 52,
          "time": 21.833311500000008,
          "velocity": 0.8346456692913385,
          "duration": 0.1666665000000016
        },
        {
          "name": "D#3",
          "midi": 51,
          "time": 21.99997800000001,
          "velocity": 0.8346456692913385,
          "duration": 0.1666665000000016
        },
        {
          "name": "C5",
          "midi": 72,
          "time": 21.99997800000001,
          "velocity": 0.8346456692913385,
          "duration": 0.4999995000000048
        },
        {
          "name": "D#3",
          "midi": 51,
          "time": 21.99997800000001,
          "velocity": 0.8346456692913385,
          "duration": 0.3333330000000032
        },
        {
          "name": "E3",
          "midi": 52,
          "time": 22.16664450000001,
          "velocity": 0.8346456692913385,
          "duration": 0.1666665000000016
        },
        {
          "name": "D#3",
          "midi": 51,
          "time": 22.333311000000013,
          "velocity": 0.8346456692913385,
          "duration": 0.3333330000000032
        },
        {
          "name": "F#3",
          "midi": 54,
          "time": 22.333311000000013,
          "velocity": 0.8346456692913385,
          "duration": 0.1666665000000016
        },
        {
          "name": "B4",
          "midi": 71,
          "time": 22.499977500000014,
          "velocity": 0.8346456692913385,
          "duration": 0.1666665000000016
        },
        {
          "name": "G3",
          "midi": 55,
          "time": 22.499977500000014,
          "velocity": 0.8346456692913385,
          "duration": 0.1666665000000016
        },
        {
          "name": "F#3",
          "midi": 54,
          "time": 22.666644000000016,
          "velocity": 0.8346456692913385,
          "duration": 0.3333330000000032
        },
        {
          "name": "A4",
          "midi": 69,
          "time": 22.666644000000016,
          "velocity": 0.8346456692913385,
          "duration": 0.1666665000000016
        },
        {
          "name": "A3",
          "midi": 57,
          "time": 22.666644000000016,
          "velocity": 0.8346456692913385,
          "duration": 0.1666665000000016
        },
        {
          "name": "G4",
          "midi": 67,
          "time": 22.833310500000017,
          "velocity": 0.8346456692913385,
          "duration": 0.1666665000000016
        },
        {
          "name": "B3",
          "midi": 59,
          "time": 22.833310500000017,
          "velocity": 0.8346456692913385,
          "duration": 0.1666665000000016
        },
        {
          "name": "A2",
          "midi": 45,
          "time": 22.99997700000002,
          "velocity": 0.8346456692913385,
          "duration": 0.3333330000000032
        },
        {
          "name": "F#4",
          "midi": 66,
          "time": 22.99997700000002,
          "velocity": 0.8346456692913385,
          "duration": 0.1666665000000016
        },
        {
          "name": "C4",
          "midi": 60,
          "time": 22.99997700000002,
          "velocity": 0.8346456692913385,
          "duration": 0.1666665000000016
        },
        {
          "name": "G4",
          "midi": 67,
          "time": 23.16664350000002,
          "velocity": 0.8346456692913385,
          "duration": 0.1666665000000016
        },
        {
          "name": "B3",
          "midi": 59,
          "time": 23.16664350000002,
          "velocity": 0.8346456692913385,
          "duration": 0.1666665000000016
        },
        {
          "name": "A2",
          "midi": 45,
          "time": 23.333310000000022,
          "velocity": 0.8346456692913385,
          "duration": 0.3333330000000032
        },
        {
          "name": "A4",
          "midi": 69,
          "time": 23.333310000000022,
          "velocity": 0.8346456692913385,
          "duration": 0.4999995000000048
        },
        {
          "name": "A3",
          "midi": 57,
          "time": 23.333310000000022,
          "velocity": 0.8346456692913385,
          "duration": 0.1666665000000016
        },
        {
          "name": "G3",
          "midi": 55,
          "time": 23.499976500000024,
          "velocity": 0.8346456692913385,
          "duration": 0.1666665000000016
        },
        {
          "name": "A2",
          "midi": 45,
          "time": 23.666643000000025,
          "velocity": 0.8346456692913385,
          "duration": 0.3333330000000032
        },
        {
          "name": "F#3",
          "midi": 54,
          "time": 23.666643000000025,
          "velocity": 0.8346456692913385,
          "duration": 0.1666665000000016
        },
        {
          "name": "G4",
          "midi": 67,
          "time": 23.833309500000027,
          "velocity": 0.8346456692913385,
          "duration": 0.1666665000000016
        },
        {
          "name": "E3",
          "midi": 52,
          "time": 23.833309500000027,
          "velocity": 0.8346456692913385,
          "duration": 0.1666665000000016
        },
        {
          "name": "C3",
          "midi": 48,
          "time": 23.99997600000003,
          "velocity": 0.8346456692913385,
          "duration": 0.3333330000000032
        },
        {
          "name": "F#4",
          "midi": 66,
          "time": 23.99997600000003,
          "velocity": 0.8346456692913385,
          "duration": 0.1666665000000016
        },
        {
          "name": "D#3",
          "midi": 51,
          "time": 23.99997600000003,
          "velocity": 0.8346456692913385,
          "duration": 0.1666665000000016
        },
        {
          "name": "E4",
          "midi": 64,
          "time": 24.16664250000003,
          "velocity": 0.8346456692913385,
          "duration": 0.1666665000000016
        },
        {
          "name": "E3",
          "midi": 52,
          "time": 24.16664250000003,
          "velocity": 0.8346456692913385,
          "duration": 0.1666665000000016
        },
        {
          "name": "F#2",
          "midi": 42,
          "time": 24.333309000000032,
          "velocity": 0.8346456692913385,
          "duration": 0.3333330000000032
        },
        {
          "name": "D#4",
          "midi": 63,
          "time": 24.333309000000032,
          "velocity": 0.8346456692913385,
          "duration": 0.3333330000000032
        },
        {
          "name": "A3",
          "midi": 57,
          "time": 24.333309000000032,
          "velocity": 0.8346456692913385,
          "duration": 0.1666665000000016
        },
        {
          "name": "F#3",
          "midi": 54,
          "time": 24.499975500000033,
          "velocity": 0.8346456692913385,
          "duration": 0.1666665000000016
        },
        {
          "name": "E2",
          "midi": 40,
          "time": 24.666642000000035,
          "velocity": 0.8346456692913385,
          "duration": 0.3333330000000032
        },
        {
          "name": "B4",
          "midi": 71,
          "time": 24.666642000000035,
          "velocity": 0.8346456692913385,
          "duration": 0.3333330000000032
        },
        {
          "name": "G3",
          "midi": 55,
          "time": 24.666642000000035,
          "velocity": 0.8346456692913385,
          "duration": 0.1666665000000016
        },
        {
          "name": "E3",
          "midi": 52,
          "time": 24.833308500000037,
          "velocity": 0.8346456692913385,
          "duration": 0.1666665000000016
        },
        {
          "name": "B2",
          "midi": 47,
          "time": 24.99997500000004,
          "velocity": 0.8346456692913385,
          "duration": 0.3333329999999961
        },
        {
          "name": "G4",
          "midi": 67,
          "time": 24.99997500000004,
          "velocity": 0.8346456692913385,
          "duration": 0.08333324999999903
        },
        {
          "name": "B2",
          "midi": 47,
          "time": 24.99997500000004,
          "velocity": 0.8346456692913385,
          "duration": 0.3333329999999961
        },
        {
          "name": "A4",
          "midi": 69,
          "time": 25.083308250000037,
          "velocity": 0.8346456692913385,
          "duration": 0.08333324999999903
        },
        {
          "name": "G4",
          "midi": 67,
          "time": 25.166641500000036,
          "velocity": 0.8346456692913385,
          "duration": 0.08333324999999903
        },
        {
          "name": "A4",
          "midi": 69,
          "time": 25.249974750000035,
          "velocity": 0.8346456692913385,
          "duration": 0.08333324999999903
        },
        {
          "name": "B2",
          "midi": 47,
          "time": 25.333308000000034,
          "velocity": 0.8346456692913385,
          "duration": 0.3333330000000032
        },
        {
          "name": "D#3",
          "midi": 51,
          "time": 25.333308000000034,
          "velocity": 0.8346456692913385,
          "duration": 0.3333330000000032
        },
        {
          "name": "F#4",
          "midi": 66,
          "time": 25.333308000000034,
          "velocity": 0.8346456692913385,
          "duration": 0.1666665000000016
        },
        {
          "name": "E4",
          "midi": 64,
          "time": 25.499974500000036,
          "velocity": 0.8346456692913385,
          "duration": 0.1666665000000016
        },
        {
          "name": "E2",
          "midi": 40,
          "time": 25.666641000000038,
          "velocity": 0.8346456692913385,
          "duration": 0.33333299999999966
        },
        {
          "name": "E3",
          "midi": 52,
          "time": 25.666641000000038,
          "velocity": 0.8346456692913385,
          "duration": 0.49999950000000126
        },
        {
          "name": "E4",
          "midi": 64,
          "time": 25.666641000000038,
          "velocity": 0.8346456692913385,
          "duration": 0.6666660000000029
        },
        {
          "name": "E3",
          "midi": 52,
          "time": 25.999974000000037,
          "velocity": 0.8346456692913385,
          "duration": 0.3333330000000032
        },
        {
          "name": "D3",
          "midi": 50,
          "time": 26.16664050000004,
          "velocity": 0.8346456692913385,
          "duration": 0.1666665000000016
        },
        {
          "name": "C3",
          "midi": 48,
          "time": 26.33330700000004,
          "velocity": 0.8346456692913385,
          "duration": 0.3333330000000032
        },
        {
          "name": "E5",
          "midi": 76,
          "time": 26.499973500000042,
          "velocity": 0.8346456692913385,
          "duration": 0.1666665000000016
        }
      ],
      "controlChanges": {
        "64": [
          {
            "number": 64,
            "time": 0,
            "value": 0
          }
        ]
      },
      "id": 1,
      "name": "Harpsichord",
      "instrumentNumber": 6,
      "instrument": "harpsichord",
      "instrumentFamily": "piano",
      "channelNumber": 5,
      "isPercussion": false
    }
  ]
}
